<svg xmlns="http://www.w3.org/2000/svg" viewBox="0 0 73 73" width="64" height="64" role="img" aria-label="Civix logo">
  <path d="M9.29229 33.4583H15.2083C16.8217 33.4583 18.3691 34.0993 19.5099 35.2401C20.6507 36.3809 21.2917 37.9283 21.2917 39.5417V42.5833C21.2917 44.1967 21.9326 45.7441 23.0734 46.8849C24.2143 48.0257 25.7616 48.6667 27.375 48.6667C28.9884 48.6667 30.5357 49.3076 31.6766 50.4484C32.8174 51.5893 33.4583 53.1366 33.4583 54.75V63.7077M24.3333 11.969V16.7292C24.3333 18.7459 25.1345 20.6801 26.5605 22.1061C27.9866 23.5322 29.9208 24.3333 31.9375 24.3333H33.4583C35.0717 24.3333 36.6191 24.9743 37.7599 26.1151C38.9007 27.2559 39.5417 28.8033 39.5417 30.4167C39.5417 32.0301 40.1826 33.5774 41.3234 34.7182C42.4643 35.8591 44.0116 36.5 45.625 36.5C47.2384 36.5 48.7857 35.8591 49.9266 34.7182C51.0674 33.5774 51.7083 32.0301 51.7083 30.4167C51.7083 28.8033 52.3493 27.2559 53.4901 26.1151C54.6309 24.9743 56.1783 24.3333 57.7917 24.3333H61.028M45.625 62.3177V54.75C45.625 53.1366 46.2659 51.5893 47.4068 50.4484C48.5476 49.3076 50.0949 48.6667 51.7083 48.6667H61.028M63.875 36.5C63.875 40.0949 63.1669 43.6547 61.7912 46.976C60.4155 50.2972 58.3991 53.315 55.857 55.857C53.315 58.3991 50.2972 60.4155 46.976 61.7912C43.6547 63.1669 40.0949 63.875 36.5 63.875C32.9051 63.875 29.3453 63.1669 26.024 61.7912C22.7028 60.4155 19.685 58.3991 17.143 55.857C14.6009 53.315 12.5845 50.2972 11.2088 46.976C9.83308 43.6547 9.125 40.0949 9.125 36.5C9.125 29.2397 12.0091 22.2768 17.143 17.143C22.2768 12.0091 29.2397 9.125 36.5 9.125C43.7603 9.125 50.7232 12.0091 55.857 17.143C60.9909 22.2768 63.875 29.2397 63.875 36.5Z" fill="none" stroke="#16325b" stroke-width="4" stroke-linecap="round" stroke-linejoin="round"/>
</svg>
